<svg width="320" height="320" viewBox="0 0 320 320" fill="none"
  xmlns="http://www.w3.org/2000/svg">
  <circle cx="160" cy="160" r="160" fill="url(#paint0_linear)"/>
  <path d="M260.055 174.815V155.555C260.055 128.963 249.699 103.963 230.896 85.1593C212.092 66.3556 187.092 56 160.5 56C133.908 56 108.908 66.3556 90.1043 85.1593C71.301 103.963 60.9454 128.963 60.9454 155.555V174.815C50.9551 175.382 43 183.687 43 193.817V223.639C43 234.135 51.5394 242.675 62.0355 242.675H73.0401C73.8232 254.031 83.3058 263.033 94.8571 263.033C106.919 263.033 116.733 253.22 116.733 241.157V176.3C116.733 164.238 106.919 154.424 94.8571 154.424C92.6416 154.424 90.5036 154.758 88.4868 155.373C88.5855 115.747 120.852 83.5391 160.5 83.5391C200.149 83.5391 232.415 115.747 232.513 155.373C230.496 154.758 228.358 154.424 226.143 154.424C214.081 154.424 204.267 164.238 204.267 176.3V241.157C204.267 253.219 214.081 263.033 226.143 263.033C237.694 263.033 247.177 254.031 247.96 242.675H258.965C269.461 242.675 278 234.135 278 223.639V193.817C278 183.687 270.045 175.382 260.055 174.815Z" fill="white"/>
  <defs>
    <linearGradient id="paint0_linear" x1="0" y1="0" x2="320" y2="320" gradientUnits="userSpaceOnUse">
      <stop stop-color="#0066FF"/>
      <stop offset="0.864583" stop-color="#00D057"/>
    </linearGradient>
  </defs>
</svg>
